<svg width="34" height="34" viewBox="0 0 34 34" fill="none" xmlns="http://www.w3.org/2000/svg">
<path d="M32.4334 33.1532L29.8929 9.48443C29.8505 9.10336 29.5118 8.80697 29.1307 8.80697H24.4309V7.36737C24.4309 3.30261 21.1283 0 17.0635 0C12.9987 0 9.69613 3.30261 9.69613 7.36737V8.80697H4.86923C4.48816 8.80697 4.14943 9.10336 4.10709 9.48443L1.56662 33.1532C1.52428 33.3649 1.60896 33.5766 1.73598 33.7459C1.86301 33.9153 2.07471 34 2.28642 34H31.7136C31.9253 34 32.137 33.9153 32.264 33.7459C32.391 33.5766 32.4757 33.3649 32.4334 33.1532ZM23.6687 13.0834C24.0498 13.0834 24.3462 13.3798 24.3462 13.7609C24.3462 14.142 24.0498 14.4384 23.6687 14.4384C23.2877 14.4384 22.9913 14.142 22.9913 13.7609C22.9913 13.3798 23.2877 13.0834 23.6687 13.0834ZM11.2204 7.36737C11.2204 4.14944 13.8456 1.52428 17.0635 1.52428C20.2814 1.52428 22.9066 4.14944 22.9066 7.36737V8.80697H11.2204V7.36737ZM10.4583 13.0834C10.8393 13.0834 11.1357 13.3798 11.1357 13.7609C11.1357 14.142 10.8393 14.4384 10.4583 14.4384C10.0772 14.4384 9.78081 14.142 9.78081 13.7609C9.78081 13.3798 10.0772 13.0834 10.4583 13.0834ZM3.17558 32.4334L5.54669 10.2889H9.69613V11.6862C8.84931 11.9826 8.25653 12.787 8.25653 13.7186C8.25653 14.9041 9.23038 15.878 10.4159 15.878C11.6015 15.878 12.5753 14.9041 12.5753 13.7186C12.5753 12.787 11.9826 11.9826 11.1357 11.6862V10.2889H22.8219V11.6862C21.9751 11.9826 21.3823 12.787 21.3823 13.7186C21.3823 14.9041 22.3562 15.878 23.5417 15.878C24.7273 15.878 25.7011 14.9041 25.7011 13.7186C25.7011 12.787 25.1083 11.9826 24.2615 11.6862V10.2889H28.5803L30.9514 32.4334H3.17558Z" fill="white"/>
</svg>
